<svg id="Layer_1" data-name="Layer 1" xmlns="http://www.w3.org/2000/svg" xmlns:xlink="http://www.w3.org/1999/xlink" viewBox="0 0 100 68.02"><defs><linearGradient id="linear-gradient" x1="77.82" y1="-68.1" x2="77.82" y2="-23.74" gradientTransform="matrix(-1, 0, 0, 1, 100, 68.1)" gradientUnits="userSpaceOnUse"><stop offset="0" stop-color="#fdde43"/><stop offset="1" stop-color="#fdcf43"/></linearGradient></defs><circle cx="22.18" cy="22.18" r="22.18" fill="url(#linear-gradient)"/><path d="M70.68,18.75C84.5,16.1,98.38,26.1,99.84,39.64c1.61,15-9,28-23.56,28.22-19.24.25-38.5.17-57.75,0C8.94,67.77,1.33,60.39.13,50.65-1,41.89,5.06,33,13.88,30.45c1.81-.52,3.7-.74,5.51-1.09C21,15.93,27.71,7.49,38.63,4.93,50.14,2.24,59.4,6.79,67.56,19.36,68.7,19.1,69.69,18.93,70.68,18.75Z" transform="translate(0 0)" fill="#fff"/></svg>